<svg width="28" height="28" viewBox="0 0 28 28" fill="none" xmlns="http://www.w3.org/2000/svg">
<rect width="28" height="28" fill="#444444"/>
<g id="Home" clip-path="url(#clip0_0_1)">
<rect width="1920" height="4826" transform="translate(-1688 -24)" fill="white"/>
<g id="Header" filter="url(#filter0_d_0_1)">
<rect width="1921" height="76" transform="translate(-1688 -24)" fill="white"/>
<g id="Frame 427321858">
<g id="Frame 632">
<g id="cart 1">
<path id="Vector" d="M22.1667 8.16667H18.6667V7C18.6667 5.76232 18.1751 4.57534 17.2999 3.70017C16.4247 2.825 15.2378 2.33333 14.0001 2.33333C12.7624 2.33333 11.5754 2.825 10.7002 3.70017C9.82508 4.57534 9.33341 5.76232 9.33341 7V8.16667H5.83341C5.524 8.16667 5.22725 8.28958 5.00846 8.50837C4.78966 8.72717 4.66675 9.02391 4.66675 9.33333V22.1667C4.66675 23.0949 5.0355 23.9852 5.69187 24.6415C6.34825 25.2979 7.23849 25.6667 8.16675 25.6667H19.8334C20.7617 25.6667 21.6519 25.2979 22.3083 24.6415C22.9647 23.9852 23.3334 23.0949 23.3334 22.1667V9.33333C23.3334 9.02391 23.2105 8.72717 22.9917 8.50837C22.7729 8.28958 22.4762 8.16667 22.1667 8.16667ZM11.6667 7C11.6667 6.38116 11.9126 5.78767 12.3502 5.35008C12.7878 4.9125 13.3812 4.66667 14.0001 4.66667C14.6189 4.66667 15.2124 4.9125 15.65 5.35008C16.0876 5.78767 16.3334 6.38116 16.3334 7V8.16667H11.6667V7ZM21.0001 22.1667C21.0001 22.4761 20.8772 22.7728 20.6584 22.9916C20.4396 23.2104 20.1428 23.3333 19.8334 23.3333H8.16675C7.85733 23.3333 7.56058 23.2104 7.34179 22.9916C7.123 22.7728 7.00008 22.4761 7.00008 22.1667V10.5H9.33341V11.6667C9.33341 11.9761 9.45633 12.2728 9.67512 12.4916C9.89392 12.7104 10.1907 12.8333 10.5001 12.8333C10.8095 12.8333 11.1062 12.7104 11.325 12.4916C11.5438 12.2728 11.6667 11.9761 11.6667 11.6667V10.5H16.3334V11.6667C16.3334 11.9761 16.4563 12.2728 16.6751 12.4916C16.8939 12.7104 17.1907 12.8333 17.5001 12.8333C17.8095 12.8333 18.1062 12.7104 18.325 12.4916C18.5438 12.2728 18.6667 11.9761 18.6667 11.6667V10.5H21.0001V22.1667Z" fill="black"/>
</g>
</g>
</g>
</g>
</g>
<defs>
<filter id="filter0_d_0_1" x="-1696" y="-30" width="1937" height="92" filterUnits="userSpaceOnUse" color-interpolation-filters="sRGB">
<feFlood flood-opacity="0" result="BackgroundImageFix"/>
<feColorMatrix in="SourceAlpha" type="matrix" values="0 0 0 0 0 0 0 0 0 0 0 0 0 0 0 0 0 0 127 0" result="hardAlpha"/>
<feOffset dy="2"/>
<feGaussianBlur stdDeviation="4"/>
<feColorMatrix type="matrix" values="0 0 0 0 0 0 0 0 0 0 0 0 0 0 0 0 0 0 0.04 0"/>
<feBlend mode="normal" in2="BackgroundImageFix" result="effect1_dropShadow_0_1"/>
<feBlend mode="normal" in="SourceGraphic" in2="effect1_dropShadow_0_1" result="shape"/>
</filter>
<clipPath id="clip0_0_1">
<rect width="1920" height="4826" fill="white" transform="translate(-1688 -24)"/>
</clipPath>
</defs>
</svg>
