<svg width="28" height="28" viewBox="0 0 28 28" fill="none" xmlns="http://www.w3.org/2000/svg">
<g id="circle-user 1">
<path id="Vector" d="M7.03443 22.6347C6.97076 23.2759 7.43894 23.8472 8.08012 23.9109C8.7213 23.9746 9.29269 23.5065 9.35634 22.8653L7.03443 22.6347ZM18.6435 22.8653C18.7072 23.5065 19.2785 23.9746 19.9197 23.9109C20.5609 23.8472 21.0291 23.2759 20.9654 22.6347L18.6435 22.8653ZM23.3333 14C23.3333 19.1547 19.1546 23.3333 13.9999 23.3333V25.6667C20.4432 25.6667 25.6666 20.4433 25.6666 14H23.3333ZM13.9999 23.3333C8.84526 23.3333 4.66659 19.1547 4.66659 14H2.33325C2.33325 20.4433 7.55659 25.6667 13.9999 25.6667V23.3333ZM4.66659 14C4.66659 8.84534 8.84526 4.66667 13.9999 4.66667V2.33333C7.55659 2.33333 2.33325 7.55667 2.33325 14H4.66659ZM13.9999 4.66667C19.1546 4.66667 23.3333 8.84534 23.3333 14H25.6666C25.6666 7.55667 20.4432 2.33333 13.9999 2.33333V4.66667ZM15.1666 11.6667C15.1666 12.311 14.6443 12.8333 13.9999 12.8333V15.1667C15.933 15.1667 17.4999 13.5997 17.4999 11.6667H15.1666ZM13.9999 12.8333C13.3556 12.8333 12.8333 12.311 12.8333 11.6667H10.4999C10.4999 13.5997 12.0669 15.1667 13.9999 15.1667V12.8333ZM12.8333 11.6667C12.8333 11.0223 13.3556 10.5 13.9999 10.5V8.16667C12.0669 8.16667 10.4999 9.73367 10.4999 11.6667H12.8333ZM13.9999 10.5C14.6443 10.5 15.1666 11.0223 15.1666 11.6667H17.4999C17.4999 9.73367 15.933 8.16667 13.9999 8.16667V10.5ZM9.35634 22.8653C9.59036 20.5083 11.5808 18.6667 13.9999 18.6667V16.3333C10.3695 16.3333 7.38576 19.0961 7.03443 22.6347L9.35634 22.8653ZM13.9999 18.6667C16.419 18.6667 18.4095 20.5083 18.6435 22.8653L20.9654 22.6347C20.6141 19.0961 17.6304 16.3333 13.9999 16.3333V18.6667Z" fill="black"/>
</g>
</svg>
